<svg width="346" height="345" viewBox="0 0 346 345" fill="none" xmlns="http://www.w3.org/2000/svg">
<rect x="0.5" width="345" height="345" rx="30" fill="white" fill-opacity="0.1"/>
<path fill-rule="evenodd" clip-rule="evenodd" d="M229 75H165C158.373 75 153 80.3726 153 87V93H149V87C149 78.1634 156.163 71 165 71H229C237.837 71 245 78.1634 245 87V123C245 131.837 237.837 139 229 139H228.361C224.2 139 220.734 142.189 220.389 146.336L219.578 156.061C219.36 158.684 216.11 159.774 214.354 157.814L204.849 147.204C204.949 146.484 205 145.748 205 145V141.382C205.084 141.472 205.167 141.563 205.249 141.655L215.785 153.416L216.403 146.003C216.921 139.784 222.12 135 228.361 135H229C235.627 135 241 129.627 241 123V87C241 80.3726 235.627 75 229 75Z" fill="white"/>
<path d="M104 115C104 107.268 110.268 101 118 101H182C189.732 101 196 107.268 196 115V151C196 158.732 189.732 165 182 165H174H156.648C151.531 165 146.655 167.178 143.241 170.99L131.156 184.479C130.571 185.133 129.488 184.769 129.415 183.895L128.604 174.17C128.172 168.987 123.84 165 118.639 165H118C110.268 165 104 158.732 104 151V115Z" stroke="white" stroke-width="4"/>
<path d="M118 121H150" stroke="white" stroke-width="4" stroke-linecap="round"/>
<path d="M118 133H182" stroke="white" stroke-width="4" stroke-linecap="round"/>
<path d="M118 145H174" stroke="white" stroke-width="4" stroke-linecap="round"/>
<path d="M91.4614 257H94.3477V245.601H94.4038L102.321 257H104.904V240.794H102.029V252.148H101.962L94.0669 240.794H91.4614V257ZM112.754 257.236C116.247 257.236 118.516 254.911 118.516 251.048V251.025C118.516 247.185 116.213 244.849 112.743 244.849C109.284 244.849 106.993 247.207 106.993 251.025V251.048C106.993 254.9 109.25 257.236 112.754 257.236ZM112.766 254.979C110.98 254.979 109.846 253.552 109.846 251.048V251.025C109.846 248.555 111.002 247.117 112.743 247.117C114.518 247.117 115.663 248.543 115.663 251.025V251.048C115.663 253.541 114.529 254.979 112.766 254.979ZM124.367 257.236C126.164 257.236 127.388 256.405 128.005 255.136H128.062V257H130.858V245.096H128.062V251.991C128.062 253.721 127.04 254.877 125.434 254.877C123.839 254.877 123.053 253.923 123.053 252.238V245.096H120.256V252.789C120.256 255.551 121.75 257.236 124.367 257.236ZM137.81 257.236C140.729 257.236 142.807 255.731 142.807 253.485V253.474C142.807 251.744 141.853 250.778 139.393 250.228L137.405 249.79C136.17 249.509 135.709 249.06 135.709 248.375V248.364C135.709 247.488 136.484 246.915 137.72 246.915C139.022 246.915 139.786 247.611 139.91 248.566L139.921 248.656H142.526L142.515 248.532C142.414 246.477 140.685 244.849 137.72 244.849C134.845 244.849 132.947 246.32 132.947 248.499V248.51C132.947 250.273 134.092 251.385 136.372 251.89L138.349 252.328C139.584 252.609 140 253.013 140 253.732V253.743C140 254.619 139.18 255.169 137.821 255.169C136.406 255.169 135.631 254.563 135.417 253.541L135.395 253.44H132.644L132.655 253.541C132.902 255.753 134.688 257.236 137.81 257.236ZM153.847 257.236C156.767 257.236 158.844 255.731 158.844 253.485V253.474C158.844 251.744 157.89 250.778 155.43 250.228L153.442 249.79C152.207 249.509 151.747 249.06 151.747 248.375V248.364C151.747 247.488 152.521 246.915 153.757 246.915C155.06 246.915 155.823 247.611 155.947 248.566L155.958 248.656H158.563L158.552 248.532C158.451 246.477 156.722 244.849 153.757 244.849C150.882 244.849 148.984 246.32 148.984 248.499V248.51C148.984 250.273 150.129 251.385 152.409 251.89L154.386 252.328C155.621 252.609 156.037 253.013 156.037 253.732V253.743C156.037 254.619 155.217 255.169 153.858 255.169C152.443 255.169 151.668 254.563 151.455 253.541L151.432 253.44H148.681L148.692 253.541C148.939 255.753 150.725 257.236 153.847 257.236ZM165.897 257.236C169.39 257.236 171.658 254.911 171.658 251.048V251.025C171.658 247.185 169.356 244.849 165.886 244.849C162.427 244.849 160.136 247.207 160.136 251.025V251.048C160.136 254.9 162.393 257.236 165.897 257.236ZM165.908 254.979C164.123 254.979 162.988 253.552 162.988 251.048V251.025C162.988 248.555 164.145 247.117 165.886 247.117C167.66 247.117 168.806 248.543 168.806 251.025V251.048C168.806 253.541 167.671 254.979 165.908 254.979ZM173.455 257H176.251V249.711C176.251 248.263 177.195 247.207 178.542 247.207C179.845 247.207 180.654 248.038 180.654 249.375V257H183.372V249.644C183.372 248.207 184.292 247.207 185.64 247.207C187.01 247.207 187.774 248.049 187.774 249.521V257H190.57V248.824C190.57 246.443 189.032 244.849 186.685 244.849C184.966 244.849 183.551 245.77 182.979 247.252H182.911C182.473 245.725 181.271 244.849 179.609 244.849C178.037 244.849 176.813 245.702 176.308 247.005H176.251V245.096H173.455V257ZM192.816 257H195.613V249.711C195.613 248.263 196.556 247.207 197.904 247.207C199.207 247.207 200.015 248.038 200.015 249.375V257H202.733V249.644C202.733 248.207 203.654 247.207 205.001 247.207C206.372 247.207 207.135 248.049 207.135 249.521V257H209.932V248.824C209.932 246.443 208.393 244.849 206.046 244.849C204.328 244.849 202.913 245.77 202.34 247.252H202.272C201.834 245.725 200.633 244.849 198.971 244.849C197.398 244.849 196.174 245.702 195.669 247.005H195.613V245.096H192.816V257ZM217.411 257.236C220.522 257.236 222.274 255.394 222.645 253.563L222.678 253.44H220.062L220.039 253.519C219.77 254.316 218.86 255.057 217.467 255.057C215.648 255.057 214.502 253.822 214.458 251.733H222.791V250.834C222.791 247.241 220.679 244.849 217.276 244.849C213.874 244.849 211.684 247.319 211.684 251.07V251.082C211.684 254.866 213.84 257.236 217.411 257.236ZM217.31 247.039C218.792 247.039 219.871 247.982 220.073 249.869H214.491C214.716 248.038 215.828 247.039 217.31 247.039ZM229.248 257.236C232.168 257.236 234.246 255.731 234.246 253.485V253.474C234.246 251.744 233.291 250.778 230.832 250.228L228.844 249.79C227.608 249.509 227.148 249.06 227.148 248.375V248.364C227.148 247.488 227.923 246.915 229.158 246.915C230.461 246.915 231.225 247.611 231.348 248.566L231.359 248.656H233.965L233.954 248.532C233.853 246.477 232.123 244.849 229.158 244.849C226.283 244.849 224.385 246.32 224.385 248.499V248.51C224.385 250.273 225.531 251.385 227.811 251.89L229.787 252.328C231.022 252.609 231.438 253.013 231.438 253.732V253.743C231.438 254.619 230.618 255.169 229.259 255.169C227.844 255.169 227.069 254.563 226.856 253.541L226.833 253.44H224.082L224.093 253.541C224.34 255.753 226.126 257.236 229.248 257.236ZM240.714 257H243.511V240.794H240.714V257ZM250.227 243.748H252.181L250.17 240.087H247.576L250.227 243.748ZM249.407 257.202C250.979 257.202 252.304 256.416 252.989 255.169H253.057V257H255.853V248.813C255.853 246.421 253.933 244.849 250.957 244.849C247.936 244.849 246.105 246.432 245.937 248.543L245.925 248.678H248.52L248.542 248.577C248.722 247.701 249.53 247.083 250.855 247.083C252.271 247.083 253.057 247.813 253.057 249.015V249.835L249.946 250.026C247.06 250.206 245.42 251.475 245.42 253.586V253.608C245.42 255.731 247.026 257.202 249.407 257.202ZM248.205 253.496V253.485C248.205 252.542 248.958 251.946 250.339 251.856L253.057 251.688V252.586C253.057 254.001 251.844 255.068 250.238 255.068C249.014 255.068 248.205 254.473 248.205 253.496ZM93.3818 288.931H96.1782V282.99H96.2344C96.9082 284.382 98.2671 285.236 99.9629 285.236C102.95 285.236 104.859 282.877 104.859 279.059V279.048C104.859 275.207 102.95 272.849 99.9292 272.849C98.2222 272.849 96.9194 273.725 96.2344 275.151H96.1782V273.096H93.3818V288.931ZM99.0981 282.877C97.3687 282.877 96.1558 281.384 96.1558 279.059V279.048C96.1558 276.712 97.3687 275.207 99.0981 275.207C100.884 275.207 102.007 276.667 102.007 279.048V279.059C102.007 281.406 100.884 282.877 99.0981 282.877ZM111.923 285.236C115.416 285.236 117.685 282.911 117.685 279.048V279.025C117.685 275.185 115.382 272.849 111.912 272.849C108.453 272.849 106.162 275.207 106.162 279.025V279.048C106.162 282.9 108.419 285.236 111.923 285.236ZM111.935 282.979C110.149 282.979 109.015 281.552 109.015 279.048V279.025C109.015 276.555 110.171 275.117 111.912 275.117C113.687 275.117 114.832 276.543 114.832 279.025V279.048C114.832 281.541 113.698 282.979 111.935 282.979ZM123.536 285.236C125.333 285.236 126.557 284.405 127.174 283.136H127.23V285H130.027V273.096H127.23V279.991C127.23 281.721 126.208 282.877 124.603 282.877C123.008 282.877 122.222 281.923 122.222 280.238V273.096H119.425V280.789C119.425 283.551 120.919 285.236 123.536 285.236ZM132.329 285H135.125V278.093C135.125 276.33 136.08 275.331 137.664 275.331C138.135 275.331 138.562 275.398 138.798 275.488V272.961C138.584 272.905 138.259 272.849 137.911 272.849C136.541 272.849 135.552 273.713 135.182 275.151H135.125V273.096H132.329V285ZM148.052 285H151.129L155.318 273.096H152.398L149.646 282.406H149.579L146.816 273.096H143.84L148.052 285ZM161.45 285.236C164.942 285.236 167.211 282.911 167.211 279.048V279.025C167.211 275.185 164.909 272.849 161.438 272.849C157.979 272.849 155.688 275.207 155.688 279.025V279.048C155.688 282.9 157.946 285.236 161.45 285.236ZM161.461 282.979C159.675 282.979 158.541 281.552 158.541 279.048V279.025C158.541 276.555 159.698 275.117 161.438 275.117C163.213 275.117 164.358 276.543 164.358 279.025V279.048C164.358 281.541 163.224 282.979 161.461 282.979ZM173.062 285.236C174.859 285.236 176.083 284.405 176.701 283.136H176.757V285H179.553V273.096H176.757V279.991C176.757 281.721 175.735 282.877 174.129 282.877C172.534 282.877 171.748 281.923 171.748 280.238V273.096H168.952V280.789C168.952 283.551 170.445 285.236 173.062 285.236ZM186.505 285.236C189.425 285.236 191.502 283.731 191.502 281.485V281.474C191.502 279.744 190.548 278.778 188.088 278.228L186.101 277.79C184.865 277.509 184.405 277.06 184.405 276.375V276.364C184.405 275.488 185.18 274.915 186.415 274.915C187.718 274.915 188.481 275.611 188.605 276.566L188.616 276.656H191.222L191.21 276.532C191.109 274.477 189.38 272.849 186.415 272.849C183.54 272.849 181.642 274.32 181.642 276.499V276.51C181.642 278.273 182.788 279.385 185.067 279.89L187.044 280.328C188.279 280.609 188.695 281.013 188.695 281.732V281.743C188.695 282.619 187.875 283.169 186.516 283.169C185.101 283.169 184.326 282.563 184.113 281.541L184.09 281.44H181.339L181.35 281.541C181.597 283.753 183.383 285.236 186.505 285.236ZM201.408 285.202C202.98 285.202 204.305 284.416 204.99 283.169H205.058V285H207.854V276.813C207.854 274.421 205.934 272.849 202.958 272.849C199.937 272.849 198.106 274.432 197.938 276.543L197.926 276.678H200.521L200.543 276.577C200.723 275.701 201.531 275.083 202.856 275.083C204.271 275.083 205.058 275.813 205.058 277.015V277.835L201.947 278.026C199.061 278.206 197.421 279.475 197.421 281.586V281.608C197.421 283.731 199.027 285.202 201.408 285.202ZM200.206 281.496V281.485C200.206 280.542 200.958 279.946 202.34 279.856L205.058 279.688V280.586C205.058 282.001 203.845 283.068 202.239 283.068C201.015 283.068 200.206 282.473 200.206 281.496ZM211.594 271.389C212.47 271.389 213.144 270.692 213.144 269.861C213.144 269.008 212.47 268.323 211.594 268.323C210.718 268.323 210.033 269.008 210.033 269.861C210.033 270.692 210.718 271.389 211.594 271.389ZM210.19 285H212.986V273.096H210.19V285ZM219.792 285.236C221.51 285.236 222.824 284.382 223.498 282.979H223.565V285H226.362V268.794H223.565V275.14H223.498C222.824 273.713 221.465 272.849 219.781 272.849C216.793 272.849 214.873 275.196 214.873 279.037V279.048C214.873 282.877 216.782 285.236 219.792 285.236ZM220.634 282.877C218.837 282.877 217.726 281.417 217.726 279.048V279.037C217.726 276.667 218.849 275.207 220.634 275.207C222.353 275.207 223.565 276.712 223.565 279.037V279.048C223.565 281.384 222.364 282.877 220.634 282.877ZM233.942 285.236C237.053 285.236 238.805 283.394 239.176 281.563L239.209 281.44H236.593L236.57 281.519C236.301 282.316 235.391 283.057 233.999 283.057C232.179 283.057 231.034 281.822 230.989 279.733H239.322V278.834C239.322 275.241 237.21 272.849 233.808 272.849C230.405 272.849 228.215 275.319 228.215 279.07V279.082C228.215 282.866 230.371 285.236 233.942 285.236ZM233.841 275.039C235.324 275.039 236.402 275.982 236.604 277.869H231.022C231.247 276.038 232.359 275.039 233.841 275.039ZM241.13 285H243.926V278.093C243.926 276.33 244.881 275.331 246.464 275.331C246.936 275.331 247.363 275.398 247.599 275.488V272.961C247.385 272.905 247.06 272.849 246.711 272.849C245.341 272.849 244.353 273.713 243.982 275.151H243.926V273.096H241.13V285ZM250.103 279.576H252.54L252.765 268.794H249.878L250.103 279.576ZM251.316 285.124C252.237 285.124 252.956 284.427 252.956 283.54C252.956 282.642 252.237 281.957 251.316 281.957C250.406 281.957 249.688 282.642 249.688 283.54C249.688 284.427 250.406 285.124 251.316 285.124Z" fill="white"/>
<rect x="56.5" y="219.5" width="234" height="87" rx="14.5" stroke="white"/>
<rect x="1.5" y="1" width="343" height="343" rx="29" stroke="white" stroke-opacity="0.5" stroke-width="2"/>
</svg>
