<svg width="346" height="345" viewBox="0 0 346 345" fill="none" xmlns="http://www.w3.org/2000/svg">
<rect x="0.5" width="345" height="345" rx="30" fill="white" fill-opacity="0.1"/>
<path d="M150.569 288.6H152.319V284.271H154.726L157.023 288.6H159.038L156.515 284.006C157.866 283.545 158.702 282.326 158.702 280.795V280.779C158.702 278.662 157.249 277.326 154.944 277.326H150.569V288.6ZM152.319 282.834V278.795H154.726C156.069 278.795 156.898 279.545 156.898 280.795V280.811C156.898 282.092 156.124 282.834 154.773 282.834H152.319ZM163.671 288.764C165.663 288.764 166.929 287.576 167.194 286.271L167.21 286.186H165.609L165.585 286.248C165.374 286.865 164.71 287.381 163.71 287.381C162.366 287.381 161.515 286.475 161.484 284.92H167.304V284.35C167.304 281.881 165.89 280.225 163.585 280.225C161.28 280.225 159.796 281.943 159.796 284.514V284.521C159.796 287.115 161.257 288.764 163.671 288.764ZM163.593 281.607C164.694 281.607 165.491 282.303 165.632 283.725H161.507C161.655 282.35 162.499 281.607 163.593 281.607ZM171.499 288.764C171.843 288.764 172.163 288.725 172.359 288.693V287.389C172.234 287.404 172.085 287.42 171.905 287.42C171.194 287.42 170.819 287.17 170.819 286.334V281.725H172.359V280.381H170.819V278.24H169.093V280.381H167.913V281.725H169.093V286.436C169.093 288.076 169.874 288.764 171.499 288.764ZM174.671 279.115C175.226 279.115 175.655 278.678 175.655 278.146C175.655 277.607 175.226 277.17 174.671 277.17C174.124 277.17 173.687 277.607 173.687 278.146C173.687 278.678 174.124 279.115 174.671 279.115ZM173.827 288.6H175.515V280.381H173.827V288.6ZM177.257 288.6H178.944V283.701C178.944 282.475 179.616 281.764 180.702 281.764C181.03 281.764 181.327 281.803 181.46 281.857V280.287C181.327 280.264 181.116 280.225 180.874 280.225C179.937 280.225 179.249 280.826 178.984 281.787H178.944V280.381H177.257V288.6ZM185.655 288.764C187.648 288.764 188.913 287.576 189.179 286.271L189.194 286.186H187.593L187.569 286.248C187.359 286.865 186.694 287.381 185.694 287.381C184.351 287.381 183.499 286.475 183.468 284.92H189.288V284.35C189.288 281.881 187.874 280.225 185.569 280.225C183.265 280.225 181.78 281.943 181.78 284.514V284.521C181.78 287.115 183.241 288.764 185.655 288.764ZM185.577 281.607C186.679 281.607 187.476 282.303 187.616 283.725H183.491C183.64 282.35 184.484 281.607 185.577 281.607ZM190.429 288.6H196.796V287.264H192.468V287.232L196.749 281.537V280.381H190.46V281.725H194.819V281.756L190.429 287.514V288.6Z" fill="white"/>
<rect x="49.75" y="262.75" width="247.5" height="43.3" rx="21.65" stroke="white" stroke-width="1.5"/>
<path fill-rule="evenodd" clip-rule="evenodd" d="M201.508 79.492L201.865 84.3688C201.955 85.5226 202 86.6836 202 87.85C202 98.9161 197.938 109.034 191.223 116.792L191.223 116.792C189.729 118.518 188.105 120.127 186.364 121.604L186.364 121.604C184.619 123.085 182.758 124.433 180.796 125.632L180.796 125.632C179.086 126.677 177.299 127.61 175.446 128.419L175.446 128.419C170.027 130.786 164.042 132.099 157.75 132.099C156.958 132.099 156.167 132.079 155.38 132.037C155.077 132.021 154.775 132.002 154.473 131.98L154.437 131.977L149.392 131.607L149.02 126.527C148.94 125.439 148.9 124.347 148.9 123.249C148.9 116.958 150.213 110.972 152.58 105.553C149.796 103.237 147.015 101.086 144.236 99.1007C142.94 98.1753 142.613 96.3887 143.496 95.0639C147.806 88.5984 154.926 86.9458 164.207 89.7769C171.966 83.0622 182.083 79 193.15 79C194.247 79 195.34 79.04 196.427 79.1197L201.508 79.492ZM175.446 128.419C177.299 127.61 179.086 126.677 180.796 125.632C182.178 127.32 183.503 129.008 184.77 130.698C186.531 128.508 187.089 125.53 186.364 121.604C188.105 120.127 189.73 118.518 191.223 116.792C194.055 126.074 192.402 133.194 185.936 137.504C184.612 138.388 182.825 138.06 181.899 136.764C179.914 133.985 177.763 131.203 175.446 128.419ZM194.932 84.9406C195.287 84.9568 195.642 84.9779 195.996 85.0038C196.065 85.9471 196.1 86.8962 196.1 87.8499C196.1 109.03 178.93 126.199 157.75 126.199C157.17 126.199 156.592 126.187 156.016 126.161C155.763 126.15 155.51 126.136 155.258 126.12C155.14 126.112 155.022 126.104 154.905 126.096C154.835 125.152 154.801 124.203 154.801 123.25C154.801 118.453 155.681 113.861 157.29 109.629L157.289 109.628C158.023 107.699 158.907 105.844 159.928 104.079L159.929 104.079C166.559 92.6141 178.954 84.9 193.15 84.9C193.746 84.9 194.34 84.9135 194.932 84.9406ZM150.302 96.2306C152.492 94.4694 155.469 93.911 159.395 94.636C157.914 96.3808 156.567 98.2419 155.368 100.204C153.68 98.8219 151.991 97.4975 150.302 96.2306ZM190.2 95.2249C190.2 97.6687 188.218 99.6498 185.775 99.6498C183.331 99.6498 181.35 97.6687 181.35 95.2249C181.35 92.7811 183.331 90.7999 185.775 90.7999C188.218 90.7999 190.2 92.7811 190.2 95.2249Z" fill="white"/>
<path d="M89.9731 159.67H84.1108V175H86.6377V169.104H89.8159L92.5674 175H95.4312L92.3315 168.677C93.5781 168.217 95.1392 166.914 95.1392 164.387C95.1392 161.827 93.5107 159.67 89.9731 159.67ZM86.6377 167.083V161.759H89.625C91.3433 161.759 92.5225 162.669 92.5225 164.477C92.5225 166.162 91.4556 167.083 89.5576 167.083H86.6377ZM102.619 175.202C105.55 175.202 107.1 173.506 107.459 171.586H105.089C104.786 172.608 103.921 173.237 102.652 173.237C100.957 173.237 99.8784 171.912 99.8784 169.913V169.632H107.594V168.498C107.594 165.151 105.685 162.927 102.518 162.927C99.3955 162.927 97.4189 165.072 97.4189 168.385V169.587C97.4189 173.102 99.4404 175.202 102.619 175.202ZM99.8784 167.891V167.869C99.8784 166.184 100.923 164.859 102.529 164.859C104.112 164.859 105.157 166.184 105.157 167.869V167.891H99.8784ZM111.098 163.129H109.424V165.128H111.064V171.665C111.064 174.045 111.861 175.079 114.748 175.079C115.253 175.079 115.725 175.034 115.927 175V173.091C115.781 173.113 115.579 173.113 115.365 173.113C114.029 173.113 113.546 172.754 113.546 171.462V165.128H115.859V163.129H113.546V160.243H111.098V163.129ZM118.487 160.232C118.487 161.052 119.161 161.636 119.97 161.636C120.778 161.636 121.441 161.052 121.441 160.232C121.441 159.412 120.778 158.817 119.97 158.817C119.161 158.817 118.487 159.412 118.487 160.232ZM118.723 175H121.216V163.129H118.723V175ZM124.496 175H127.022V167.97C127.022 166.375 127.696 165.14 129.695 165.14C130.111 165.14 130.549 165.173 130.762 165.229V163.028C130.526 162.983 130.246 162.961 129.92 162.961C128.269 162.961 127.382 163.949 127.079 164.69H126.989V163.129H124.496V175ZM137.411 175.202C140.342 175.202 141.892 173.506 142.251 171.586H139.881C139.578 172.608 138.713 173.237 137.444 173.237C135.749 173.237 134.67 171.912 134.67 169.913V169.632H142.386V168.498C142.386 165.151 140.477 162.927 137.31 162.927C134.188 162.927 132.211 165.072 132.211 168.385V169.587C132.211 173.102 134.232 175.202 137.411 175.202ZM134.67 167.891V167.869C134.67 166.184 135.715 164.859 137.321 164.859C138.904 164.859 139.949 166.184 139.949 167.869V167.891H134.67ZM145.047 175H147.574V167.97C147.574 166.375 148.248 165.14 150.247 165.14C150.663 165.14 151.101 165.173 151.314 165.229V163.028C151.078 162.983 150.797 162.961 150.472 162.961C148.821 162.961 147.934 163.949 147.63 164.69H147.541V163.129H145.047V175ZM162.017 162.972C159.108 162.972 157.378 165.229 157.378 168.542V169.576C157.378 172.956 159.029 175.157 162.017 175.157C163.611 175.157 164.858 174.405 165.464 173.192H165.554V175H167.98V158.862H165.487V164.825H165.397C164.835 163.747 163.6 162.972 162.017 162.972ZM162.646 165.027C164.409 165.027 165.509 166.409 165.509 168.632V169.52C165.509 171.833 164.42 173.113 162.668 173.113C161.073 173.113 159.917 171.923 159.917 169.508V168.632C159.917 166.218 161.073 165.027 162.646 165.027ZM175.909 175.202C178.84 175.202 180.39 173.506 180.749 171.586H178.379C178.076 172.608 177.211 173.237 175.942 173.237C174.247 173.237 173.168 171.912 173.168 169.913V169.632H180.884V168.498C180.884 165.151 178.975 162.927 175.808 162.927C172.686 162.927 170.709 165.072 170.709 168.385V169.587C170.709 173.102 172.73 175.202 175.909 175.202ZM173.168 167.891V167.869C173.168 166.184 174.213 164.859 175.819 164.859C177.402 164.859 178.447 166.184 178.447 167.869V167.891H173.168ZM188.184 175H190.677V158.862H188.184V175ZM195.326 165.308L196.752 159.67H194.327L193.462 165.308H195.326ZM201.211 175.18C202.963 175.18 204.007 174.45 204.524 173.54H204.614V175H206.983V166.914C206.983 164.264 205.018 162.95 202.379 162.95C199.212 162.95 197.864 164.634 197.763 166.656H200.099C200.189 165.6 200.964 164.893 202.323 164.893C203.715 164.893 204.524 165.645 204.524 167.004V168.138H201.514C198.785 168.138 197.325 169.475 197.325 171.586C197.325 173.798 198.909 175.18 201.211 175.18ZM201.963 173.282C200.863 173.282 199.83 172.687 199.83 171.451C199.83 170.463 200.492 169.778 201.941 169.778H204.524V171.092C204.524 172.383 203.412 173.282 201.963 173.282ZM210.049 175H212.576V167.97C212.576 166.375 213.25 165.14 215.249 165.14C215.665 165.14 216.103 165.173 216.316 165.229V163.028C216.08 162.983 215.799 162.961 215.474 162.961C213.823 162.961 212.936 163.949 212.632 164.69H212.542V163.129H210.049V175ZM223.088 177.426C221.65 177.426 220.718 176.696 220.516 175.809H218.045C218.27 177.785 219.831 179.346 223.065 179.346C225.75 179.346 228.355 177.976 228.355 174.82V163.129H225.918V164.848H225.828C225.323 163.803 224.042 162.972 222.414 162.972C219.674 162.972 217.787 164.926 217.787 168.475V169.329C217.787 172.922 219.685 174.865 222.414 174.865C224.054 174.865 225.323 174.023 225.783 172.99H225.873V174.708C225.873 176.426 224.806 177.426 223.088 177.426ZM223.144 165.005C224.795 165.005 225.873 166.364 225.873 168.599V169.306C225.873 171.575 224.851 172.9 223.144 172.9C221.37 172.9 220.325 171.575 220.325 169.306V168.599C220.325 166.285 221.37 165.005 223.144 165.005ZM236.261 175.202C239.192 175.202 240.742 173.506 241.102 171.586H238.732C238.429 172.608 237.564 173.237 236.295 173.237C234.599 173.237 233.521 171.912 233.521 169.913V169.632H241.236V168.498C241.236 165.151 239.327 162.927 236.16 162.927C233.038 162.927 231.062 165.072 231.062 168.385V169.587C231.062 173.102 233.083 175.202 236.261 175.202ZM233.521 167.891V167.869C233.521 166.184 234.565 164.859 236.171 164.859C237.755 164.859 238.799 166.184 238.799 167.869V167.891H233.521ZM243.898 175H246.38V167.925C246.38 166.364 247.233 165.117 248.985 165.117C250.468 165.117 251.568 165.971 251.568 167.88V175H254.05V167.375C254.05 164.477 252.31 162.95 249.884 162.95C247.93 162.95 246.84 164.005 246.436 164.792H246.346V163.129H243.898V175ZM257.857 163.129H256.184V165.128H257.824V171.665C257.824 174.045 258.621 175.079 261.507 175.079C262.013 175.079 262.484 175.034 262.687 175V173.091C262.541 173.113 262.338 173.113 262.125 173.113C260.789 173.113 260.306 172.754 260.306 171.462V165.128H262.619V163.129H260.306V160.243H257.857V163.129Z" fill="white"/>
<path d="M127.332 221.549H129.318V218.596C133.801 218.297 137.316 215.836 137.316 211.529V211.512C137.316 207.768 134.82 205.852 130.162 204.779L129.318 204.586V197.238C131.586 197.52 133.115 198.838 133.361 200.877L133.379 201.035H137.035L137.018 200.754C136.736 196.922 133.66 194.373 129.318 194.039V191.086H127.332V194.039C122.885 194.373 119.738 196.992 119.738 200.895V200.912C119.738 204.48 122.111 206.52 126.611 207.557L127.332 207.715V215.396C124.484 215.098 123.219 213.586 122.885 211.705L122.85 211.512H119.211L119.229 211.758C119.51 215.766 122.867 218.262 127.332 218.596V221.549ZM123.465 200.684V200.648C123.465 199.049 124.801 197.555 127.332 197.238V204.129C124.502 203.461 123.465 202.301 123.465 200.684ZM129.354 208.189C132.658 208.963 133.59 210.035 133.59 211.811V211.828C133.59 213.709 132.359 215.186 129.318 215.432V208.172L129.354 208.189ZM149.656 221.549H151.643V218.596C156.125 218.297 159.641 215.836 159.641 211.529V211.512C159.641 207.768 157.145 205.852 152.486 204.779L151.643 204.586V197.238C153.91 197.52 155.439 198.838 155.686 200.877L155.703 201.035H159.359L159.342 200.754C159.061 196.922 155.984 194.373 151.643 194.039V191.086H149.656V194.039C145.209 194.373 142.062 196.992 142.062 200.895V200.912C142.062 204.48 144.436 206.52 148.936 207.557L149.656 207.715V215.396C146.809 215.098 145.543 213.586 145.209 211.705L145.174 211.512H141.535L141.553 211.758C141.834 215.766 145.191 218.262 149.656 218.596V221.549ZM145.789 200.684V200.648C145.789 199.049 147.125 197.555 149.656 197.238V204.129C146.826 203.461 145.789 202.301 145.789 200.684ZM151.678 208.189C154.982 208.963 155.914 210.035 155.914 211.811V211.828C155.914 213.709 154.684 215.186 151.643 215.432V208.172L151.678 208.189ZM171.98 221.549H173.967V218.596C178.449 218.297 181.965 215.836 181.965 211.529V211.512C181.965 207.768 179.469 205.852 174.811 204.779L173.967 204.586V197.238C176.234 197.52 177.764 198.838 178.01 200.877L178.027 201.035H181.684L181.666 200.754C181.385 196.922 178.309 194.373 173.967 194.039V191.086H171.98V194.039C167.533 194.373 164.387 196.992 164.387 200.895V200.912C164.387 204.48 166.76 206.52 171.26 207.557L171.98 207.715V215.396C169.133 215.098 167.867 213.586 167.533 211.705L167.498 211.512H163.859L163.877 211.758C164.158 215.766 167.516 218.262 171.98 218.596V221.549ZM168.113 200.684V200.648C168.113 199.049 169.449 197.555 171.98 197.238V204.129C169.15 203.461 168.113 202.301 168.113 200.684ZM174.002 208.189C177.307 208.963 178.238 210.035 178.238 211.811V211.828C178.238 213.709 177.008 215.186 173.967 215.432V208.172L174.002 208.189ZM194.305 221.549H196.291V218.596C200.773 218.297 204.289 215.836 204.289 211.529V211.512C204.289 207.768 201.793 205.852 197.135 204.779L196.291 204.586V197.238C198.559 197.52 200.088 198.838 200.334 200.877L200.352 201.035H204.008L203.99 200.754C203.709 196.922 200.633 194.373 196.291 194.039V191.086H194.305V194.039C189.857 194.373 186.711 196.992 186.711 200.895V200.912C186.711 204.48 189.084 206.52 193.584 207.557L194.305 207.715V215.396C191.457 215.098 190.191 213.586 189.857 211.705L189.822 211.512H186.184L186.201 211.758C186.482 215.766 189.84 218.262 194.305 218.596V221.549ZM190.438 200.684V200.648C190.438 199.049 191.773 197.555 194.305 197.238V204.129C191.475 203.461 190.438 202.301 190.438 200.684ZM196.326 208.189C199.631 208.963 200.562 210.035 200.562 211.811V211.828C200.562 213.709 199.332 215.186 196.291 215.432V208.172L196.326 208.189ZM216.629 221.549H218.615V218.596C223.098 218.297 226.613 215.836 226.613 211.529V211.512C226.613 207.768 224.117 205.852 219.459 204.779L218.615 204.586V197.238C220.883 197.52 222.412 198.838 222.658 200.877L222.676 201.035H226.332L226.314 200.754C226.033 196.922 222.957 194.373 218.615 194.039V191.086H216.629V194.039C212.182 194.373 209.035 196.992 209.035 200.895V200.912C209.035 204.48 211.408 206.52 215.908 207.557L216.629 207.715V215.396C213.781 215.098 212.516 213.586 212.182 211.705L212.146 211.512H208.508L208.525 211.758C208.807 215.766 212.164 218.262 216.629 218.596V221.549ZM212.762 200.684V200.648C212.762 199.049 214.098 197.555 216.629 197.238V204.129C213.799 203.461 212.762 202.301 212.762 200.684ZM218.65 208.189C221.955 208.963 222.887 210.035 222.887 211.811V211.828C222.887 213.709 221.656 215.186 218.615 215.432V208.172L218.65 208.189Z" fill="white"/>
<rect x="1.5" y="1" width="343" height="343" rx="29" stroke="white" stroke-opacity="0.5" stroke-width="2"/>
</svg>
